<mxfile host="app.diagrams.net" modified="2023-03-06T21:00:24.042Z" agent="5.0 (Windows)" etag="wrar9U-LGLfTOzHI4Mzx" version="21.0.2" type="github">
  <diagram name="Page-1" id="3oVO1tCUY8cOsb1efa17">
    <mxGraphModel dx="2074" dy="1078" grid="1" gridSize="10" guides="1" tooltips="1" connect="1" arrows="1" fold="1" page="1" pageScale="1" pageWidth="1654" pageHeight="1169" math="0" shadow="0">
      <root>
        <mxCell id="0" />
        <mxCell id="1" parent="0" />
        <mxCell id="mMdl3CUmP28ip9dh-oq1-1" value="" style="ellipse;html=1;shape=startState;fillColor=#000000;strokeColor=#ff0000;" vertex="1" parent="1">
          <mxGeometry x="90" y="40" width="30" height="30" as="geometry" />
        </mxCell>
        <mxCell id="mMdl3CUmP28ip9dh-oq1-2" value="Turn On" style="edgeStyle=orthogonalEdgeStyle;html=1;verticalAlign=bottom;endArrow=open;endSize=8;strokeColor=#ff0000;rounded=0;" edge="1" source="mMdl3CUmP28ip9dh-oq1-1" parent="1">
          <mxGeometry relative="1" as="geometry">
            <mxPoint x="105" y="130" as="targetPoint" />
          </mxGeometry>
        </mxCell>
        <mxCell id="mMdl3CUmP28ip9dh-oq1-33" value="Success Init" style="edgeStyle=orthogonalEdgeStyle;rounded=0;orthogonalLoop=1;jettySize=auto;html=1;" edge="1" parent="1" source="mMdl3CUmP28ip9dh-oq1-3" target="mMdl3CUmP28ip9dh-oq1-32">
          <mxGeometry relative="1" as="geometry" />
        </mxCell>
        <mxCell id="mMdl3CUmP28ip9dh-oq1-3" value="&lt;div&gt;Device Setup&lt;/div&gt;&lt;div&gt;&lt;br&gt;&lt;/div&gt;&lt;div&gt;&lt;br&gt;&lt;/div&gt;&lt;div&gt;&lt;br&gt;&lt;/div&gt;&lt;div&gt;&lt;br&gt;&lt;/div&gt;&lt;div&gt;&lt;br&gt;&lt;/div&gt;&lt;div&gt;&lt;br&gt;&lt;/div&gt;&lt;div&gt;&lt;br&gt;&lt;/div&gt;&lt;div&gt;&lt;br&gt;&lt;/div&gt;&lt;div&gt;&lt;br&gt;&lt;/div&gt;&lt;div&gt;&lt;br&gt;&lt;/div&gt;&lt;div&gt;&lt;br&gt;&lt;/div&gt;&lt;div&gt;&lt;br&gt;&lt;/div&gt;&lt;div&gt;&lt;br&gt;&lt;/div&gt;&lt;div&gt;&lt;br&gt;&lt;/div&gt;&lt;div&gt;&lt;br&gt;&lt;/div&gt;&lt;div&gt;&lt;br&gt;&lt;/div&gt;&lt;div&gt;&lt;br&gt;&lt;/div&gt;&lt;div&gt;&lt;br&gt;&lt;/div&gt;&lt;div&gt;&lt;br&gt;&lt;/div&gt;&lt;div&gt;&lt;br&gt;&lt;/div&gt;&lt;div&gt;&lt;br&gt;&lt;/div&gt;&lt;div&gt;&lt;br&gt;&lt;/div&gt;&lt;div&gt;&lt;br&gt;&lt;/div&gt;&lt;div&gt;&lt;br&gt;&lt;/div&gt;" style="rounded=1;whiteSpace=wrap;html=1;" vertex="1" parent="1">
          <mxGeometry x="70" y="130" width="430" height="370" as="geometry" />
        </mxCell>
        <mxCell id="mMdl3CUmP28ip9dh-oq1-4" value="" style="ellipse;html=1;shape=startState;fillColor=#000000;strokeColor=#ff0000;" vertex="1" parent="1">
          <mxGeometry x="120" y="195" width="30" height="30" as="geometry" />
        </mxCell>
        <mxCell id="mMdl3CUmP28ip9dh-oq1-5" value="" style="edgeStyle=orthogonalEdgeStyle;html=1;verticalAlign=bottom;endArrow=open;endSize=8;strokeColor=#ff0000;rounded=0;entryX=0;entryY=0.5;entryDx=0;entryDy=0;" edge="1" source="mMdl3CUmP28ip9dh-oq1-4" parent="1" target="mMdl3CUmP28ip9dh-oq1-6">
          <mxGeometry relative="1" as="geometry">
            <mxPoint x="135" y="290" as="targetPoint" />
          </mxGeometry>
        </mxCell>
        <mxCell id="mMdl3CUmP28ip9dh-oq1-25" style="edgeStyle=orthogonalEdgeStyle;rounded=0;orthogonalLoop=1;jettySize=auto;html=1;entryX=0;entryY=0.5;entryDx=0;entryDy=0;" edge="1" parent="1" source="mMdl3CUmP28ip9dh-oq1-6" target="mMdl3CUmP28ip9dh-oq1-23">
          <mxGeometry relative="1" as="geometry" />
        </mxCell>
        <mxCell id="mMdl3CUmP28ip9dh-oq1-6" value="Init EEPROM" style="rounded=1;whiteSpace=wrap;html=1;" vertex="1" parent="1">
          <mxGeometry x="180" y="180" width="90" height="60" as="geometry" />
        </mxCell>
        <mxCell id="mMdl3CUmP28ip9dh-oq1-10" value="" style="edgeStyle=orthogonalEdgeStyle;rounded=0;orthogonalLoop=1;jettySize=auto;html=1;" edge="1" parent="1" source="mMdl3CUmP28ip9dh-oq1-7" target="mMdl3CUmP28ip9dh-oq1-9">
          <mxGeometry relative="1" as="geometry" />
        </mxCell>
        <mxCell id="mMdl3CUmP28ip9dh-oq1-7" value="Init lifecycle Vars" style="whiteSpace=wrap;html=1;rounded=1;" vertex="1" parent="1">
          <mxGeometry x="313" y="260" width="120" height="60" as="geometry" />
        </mxCell>
        <mxCell id="mMdl3CUmP28ip9dh-oq1-12" value="" style="edgeStyle=orthogonalEdgeStyle;rounded=0;orthogonalLoop=1;jettySize=auto;html=1;" edge="1" parent="1" source="mMdl3CUmP28ip9dh-oq1-9" target="mMdl3CUmP28ip9dh-oq1-11">
          <mxGeometry relative="1" as="geometry" />
        </mxCell>
        <mxCell id="mMdl3CUmP28ip9dh-oq1-14" style="edgeStyle=orthogonalEdgeStyle;rounded=0;orthogonalLoop=1;jettySize=auto;html=1;" edge="1" parent="1" source="mMdl3CUmP28ip9dh-oq1-9" target="mMdl3CUmP28ip9dh-oq1-13">
          <mxGeometry relative="1" as="geometry" />
        </mxCell>
        <mxCell id="mMdl3CUmP28ip9dh-oq1-27" value="Failed" style="edgeLabel;html=1;align=center;verticalAlign=middle;resizable=0;points=[];" vertex="1" connectable="0" parent="mMdl3CUmP28ip9dh-oq1-14">
          <mxGeometry x="-0.2336" relative="1" as="geometry">
            <mxPoint as="offset" />
          </mxGeometry>
        </mxCell>
        <mxCell id="mMdl3CUmP28ip9dh-oq1-9" value="Init OLED" style="whiteSpace=wrap;html=1;rounded=1;" vertex="1" parent="1">
          <mxGeometry x="313" y="350" width="120" height="60" as="geometry" />
        </mxCell>
        <mxCell id="mMdl3CUmP28ip9dh-oq1-26" style="edgeStyle=orthogonalEdgeStyle;rounded=0;orthogonalLoop=1;jettySize=auto;html=1;" edge="1" parent="1" source="mMdl3CUmP28ip9dh-oq1-11" target="mMdl3CUmP28ip9dh-oq1-13">
          <mxGeometry relative="1" as="geometry">
            <Array as="points">
              <mxPoint x="220" y="480" />
              <mxPoint x="555" y="480" />
            </Array>
          </mxGeometry>
        </mxCell>
        <mxCell id="mMdl3CUmP28ip9dh-oq1-28" value="Failed" style="edgeLabel;html=1;align=center;verticalAlign=middle;resizable=0;points=[];" vertex="1" connectable="0" parent="mMdl3CUmP28ip9dh-oq1-26">
          <mxGeometry x="0.1265" y="-1" relative="1" as="geometry">
            <mxPoint as="offset" />
          </mxGeometry>
        </mxCell>
        <mxCell id="mMdl3CUmP28ip9dh-oq1-11" value="Init LORA Module" style="whiteSpace=wrap;html=1;rounded=1;" vertex="1" parent="1">
          <mxGeometry x="160" y="350" width="120" height="60" as="geometry" />
        </mxCell>
        <mxCell id="mMdl3CUmP28ip9dh-oq1-13" value="&lt;div&gt;&lt;br&gt;&lt;/div&gt;&lt;div&gt;&lt;br&gt;&lt;/div&gt;&lt;div&gt;&lt;br&gt;&lt;/div&gt;&lt;div&gt;&lt;br&gt;&lt;/div&gt;&lt;div&gt;&lt;br&gt;&lt;/div&gt;&lt;div&gt;&lt;br&gt;&lt;/div&gt;&lt;div&gt;Failure, Loop &amp;amp; report to Serial&lt;br&gt;&lt;/div&gt;" style="shape=umlDestroy;whiteSpace=wrap;html=1;strokeWidth=3;targetShapes=umlLifeline;align=left;labelPosition=right;verticalLabelPosition=top;verticalAlign=bottom;" vertex="1" parent="1">
          <mxGeometry x="540" y="365" width="30" height="30" as="geometry" />
        </mxCell>
        <mxCell id="mMdl3CUmP28ip9dh-oq1-29" style="edgeStyle=orthogonalEdgeStyle;rounded=0;orthogonalLoop=1;jettySize=auto;html=1;" edge="1" parent="1" source="mMdl3CUmP28ip9dh-oq1-23" target="mMdl3CUmP28ip9dh-oq1-13">
          <mxGeometry relative="1" as="geometry" />
        </mxCell>
        <mxCell id="mMdl3CUmP28ip9dh-oq1-30" value="EEPROM Read Failed" style="edgeLabel;html=1;align=center;verticalAlign=middle;resizable=0;points=[];" vertex="1" connectable="0" parent="mMdl3CUmP28ip9dh-oq1-29">
          <mxGeometry x="-0.1027" y="-4" relative="1" as="geometry">
            <mxPoint as="offset" />
          </mxGeometry>
        </mxCell>
        <mxCell id="mMdl3CUmP28ip9dh-oq1-31" style="edgeStyle=orthogonalEdgeStyle;rounded=0;orthogonalLoop=1;jettySize=auto;html=1;entryX=0.5;entryY=0;entryDx=0;entryDy=0;" edge="1" parent="1" source="mMdl3CUmP28ip9dh-oq1-23" target="mMdl3CUmP28ip9dh-oq1-7">
          <mxGeometry relative="1" as="geometry" />
        </mxCell>
        <mxCell id="mMdl3CUmP28ip9dh-oq1-23" value="Read Stored Data &amp;amp; Set Device States" style="rounded=1;whiteSpace=wrap;html=1;" vertex="1" parent="1">
          <mxGeometry x="308" y="180" width="130" height="60" as="geometry" />
        </mxCell>
        <mxCell id="mMdl3CUmP28ip9dh-oq1-32" value="" style="whiteSpace=wrap;html=1;rounded=1;" vertex="1" parent="1">
          <mxGeometry x="225" y="580" width="120" height="60" as="geometry" />
        </mxCell>
      </root>
    </mxGraphModel>
  </diagram>
</mxfile>
